<svg xmlns="http://www.w3.org/2000/svg" width="5672" height="1966" viewBox="0 0 5672 1966" version="1.1"><path d="M 1322 762.134 L 1322 1071 1234.250 1071.015 C 1185.987 1071.024, 1146.993 1071.361, 1147.595 1071.765 C 1148.197 1072.169, 1149.662 1075.730, 1150.852 1079.678 C 1152.595 1085.467, 1153.782 1087.513, 1156.982 1090.253 C 1164.476 1096.667, 1160.975 1096.411, 1246 1096.776 C 1334.637 1097.157, 1332.751 1097.301, 1340.526 1089.526 C 1348.801 1081.251, 1348.125 1110.736, 1347.794 772.500 L 1347.500 472.500 1344.576 466.729 C 1342.505 462.642, 1340.339 460.088, 1337.154 457.979 C 1334.681 456.340, 1332.172 454.980, 1331.579 454.956 C 1330.985 454.932, 1328.588 454.543, 1326.250 454.091 L 1322 453.269 1322 762.134 M 1974.752 711.158 L 1974.500 969.043 1964.158 951.271 C 1905.641 850.720, 1815.538 697.128, 1815.241 697.425 C 1814.724 697.943, 1819.213 706.726, 1825.501 717.500 C 1828.390 722.450, 1833.350 731, 1836.523 736.500 C 1839.696 742, 1843.286 748.075, 1844.500 750 C 1845.714 751.925, 1849.174 757.775, 1852.190 763 C 1857.667 772.491, 1869.436 792.613, 1875.585 803 C 1877.376 806.025, 1880.743 811.875, 1883.067 816 C 1885.391 820.125, 1890.750 829.350, 1894.974 836.500 C 1899.199 843.650, 1906.850 856.700, 1911.976 865.500 C 1917.103 874.300, 1923.658 885.550, 1926.543 890.500 C 1939.990 913.568, 1946.752 925.236, 1951.755 934 C 1970.576 966.969, 1977.663 976.096, 1985.602 977.585 C 1993.413 979.051, 1998.526 972.196, 2000.079 958.174 C 2000.674 952.801, 2000.937 858.935, 2000.770 711.500 C 2000.508 480.150, 2000.447 473.374, 1998.598 469 C 1995.151 460.846, 1988.838 455.788, 1980.131 454.206 L 1975.004 453.274 1974.752 711.158 M 797 762.500 L 797 1071 709.250 1071.015 C 660.987 1071.024, 622.021 1071.362, 622.658 1071.768 C 623.295 1072.173, 624.144 1074.304, 624.543 1076.502 C 626.122 1085.185, 632.164 1092.613, 639.723 1095.167 C 644.810 1096.885, 791.206 1097.630, 801.026 1095.987 C 811.066 1094.307, 814.867 1091.681, 819 1083.571 L 822.500 1076.702 822.500 775.101 L 822.500 473.500 820.108 468.206 C 816.310 459.801, 807.950 454, 799.634 454 L 797 454 797 762.500 M 1048.659 468.250 C 1048.301 476.087, 1048.006 505.113, 1048.004 532.750 L 1048 583 943.250 583.160 C 885.638 583.248, 839.927 583.499, 841.672 583.718 C 844.527 584.075, 844.913 584.534, 845.542 588.308 C 846.948 596.753, 851.759 602.959, 859.871 606.787 C 863.202 608.359, 871.093 608.523, 955.862 608.780 C 1016.234 608.963, 1050.177 608.703, 1053.862 608.028 C 1063.071 606.343, 1070.263 600.037, 1073.150 591.118 C 1074.766 586.124, 1075.548 494.974, 1074.099 480.574 C 1072.890 468.559, 1070.945 463.749, 1065.473 459.238 C 1061.755 456.173, 1056.077 454, 1051.790 454 L 1049.311 454 1048.659 468.250 M 1630 454.549 C 1630 455.615, 1627.051 450.559, 1770.811 696 C 1844.743 822.225, 1920.931 952.306, 1940.117 985.069 L 1975 1044.639 1975 1057.825 L 1975 1071.011 1883.833 1070.755 L 1792.666 1070.500 1623.906 782.656 C 1531.088 624.343, 1454.847 494.518, 1454.481 494.156 C 1452.373 492.078, 1460.059 506.788, 1468.507 521 C 1473.901 530.075, 1479.096 538.850, 1480.053 540.500 C 1481.009 542.150, 1487.183 552.725, 1493.772 564 C 1500.361 575.275, 1506.661 586.075, 1507.772 588 C 1514.336 599.378, 1534.870 634.406, 1540.114 643.172 C 1543.513 648.852, 1547.081 654.894, 1548.044 656.598 C 1549.007 658.302, 1555.317 669.102, 1562.067 680.598 C 1568.816 692.094, 1575.900 704.200, 1577.810 707.500 C 1579.720 710.800, 1584.078 718.225, 1587.495 724 C 1590.912 729.775, 1600.807 746.650, 1609.483 761.500 C 1618.160 776.350, 1630.324 797.050, 1636.514 807.500 C 1642.704 817.950, 1648.653 828.075, 1649.735 830 C 1650.816 831.925, 1653.957 837.325, 1656.714 842 C 1659.471 846.675, 1666.582 858.825, 1672.515 869 C 1678.449 879.175, 1684.287 889.075, 1685.490 891 C 1686.692 892.925, 1692.782 903.275, 1699.024 914 C 1719.114 948.521, 1729.728 966.649, 1756.989 1013 C 1768.149 1031.975, 1780.399 1052.833, 1784.211 1059.350 C 1799.164 1084.917, 1803.826 1090.490, 1813.618 1094.499 C 1818.334 1096.430, 1821.160 1096.508, 1896.923 1096.784 C 1950.272 1096.978, 1977.010 1096.725, 1980.548 1095.990 C 1983.409 1095.396, 1987.767 1093.631, 1990.231 1092.068 C 2002.772 1084.115, 2002.874 1063.175, 1990.470 1043 C 1989.286 1041.075, 1987.188 1037.475, 1985.808 1035 C 1984.428 1032.525, 1977.763 1021.050, 1970.998 1009.500 C 1964.233 997.950, 1954.635 981.525, 1949.669 973 C 1936.822 950.945, 1909.273 903.981, 1899.515 887.500 C 1894.956 879.800, 1890.342 871.925, 1889.262 870 C 1888.182 868.075, 1884.388 861.550, 1880.831 855.500 C 1877.273 849.450, 1870.154 837.300, 1865.011 828.500 C 1853.792 809.306, 1849.855 802.591, 1834.525 776.500 C 1828.062 765.500, 1820.415 752.450, 1817.532 747.500 C 1812.372 738.641, 1795.278 709.539, 1781.995 687 C 1778.268 680.675, 1774.221 673.700, 1773.003 671.500 C 1771.784 669.300, 1767.311 661.650, 1763.061 654.500 C 1758.812 647.350, 1752.714 637, 1749.510 631.500 C 1746.306 626, 1742.221 619.025, 1740.432 616 C 1738.643 612.975, 1731.015 599.925, 1723.481 587 C 1715.947 574.075, 1705.952 556.975, 1701.268 549 C 1696.585 541.025, 1689.058 528.200, 1684.542 520.500 C 1652.396 465.686, 1649.825 461.960, 1641.108 457.568 C 1636.147 455.069, 1630 453.398, 1630 454.549 M 2276 762.500 L 2276 1071 2189.455 1071 L 2102.909 1071 2103.559 1074.750 C 2103.916 1076.813, 2105.258 1080.854, 2106.540 1083.732 C 2109.303 1089.930, 2115.322 1094.302, 2123.400 1095.979 C 2126.866 1096.699, 2153.723 1096.959, 2205.525 1096.774 L 2282.500 1096.500 2287.388 1094.245 C 2295.953 1090.294, 2299.547 1084.777, 2301.058 1073.261 C 2301.736 1068.100, 2301.980 966.356, 2301.789 769.500 L 2301.500 473.500 2298.871 467.893 C 2295.135 459.926, 2286.775 454.172, 2278.750 454.044 L 2276 454 2276 762.500 M 2647.636 457.125 C 2642.058 464.233, 2627.274 484.348, 2536.386 608.500 C 2484.848 678.900, 2442.271 737.033, 2441.771 737.685 C 2441.156 738.487, 2449.387 751.752, 2467.211 778.685 C 2481.702 800.583, 2530.671 874.815, 2576.030 943.645 C 2621.388 1012.474, 2658.767 1068.629, 2659.093 1068.433 C 2659.419 1068.237, 2660.663 1064.787, 2661.856 1060.766 L 2664.026 1053.457 2638.192 1014.478 C 2623.984 993.040, 2605.717 965.375, 2597.599 953 C 2589.482 940.625, 2574.504 917.900, 2564.316 902.500 C 2554.127 887.100, 2535.286 858.525, 2522.445 839 C 2509.605 819.475, 2496.813 800.125, 2494.018 796 C 2485.549 783.502, 2478.798 772.755, 2476.328 767.841 C 2470.204 755.657, 2471.199 753.215, 2495.863 719.894 C 2509.049 702.081, 2524.828 680.543, 2553.664 641 C 2563.513 627.494, 2574.729 612.145, 2584.083 599.371 C 2588.162 593.800, 2596 583.070, 2601.500 575.527 C 2607 567.983, 2615.550 556.307, 2620.500 549.581 C 2625.450 542.854, 2631.975 533.897, 2635 529.676 C 2638.025 525.456, 2644.106 517.164, 2648.514 511.251 C 2670.181 482.183, 2673.680 475.974, 2672.645 468.424 C 2672.310 465.982, 2671.357 462.948, 2670.527 461.682 C 2668.251 458.208, 2661.609 454.918, 2655.625 454.301 C 2650.481 453.770, 2650.188 453.873, 2647.636 457.125 M 3086.461 456.613 C 3086.757 458.201, 3130.779 596.975, 3184.287 765 L 3281.576 1070.500 3190.788 1070.755 C 3119.159 1070.957, 3100.002 1071.273, 3100.010 1072.255 C 3100.030 1074.853, 3104.951 1083.940, 3108.411 1087.770 C 3110.394 1089.965, 3114.375 1092.827, 3117.258 1094.130 L 3122.500 1096.500 3200 1096.825 C 3284.910 1097.181, 3287.906 1097.024, 3295.044 1091.853 C 3299.980 1088.278, 3302.006 1083.877, 3301.983 1076.782 C 3301.963 1070.561, 3300.277 1064.079, 3292.027 1038.500 C 3288.656 1028.050, 3284.628 1015.450, 3283.075 1010.500 C 3281.522 1005.550, 3278.804 997, 3277.035 991.500 C 3275.266 986, 3272.989 978.800, 3271.975 975.500 C 3270.961 972.200, 3267.377 960.950, 3264.009 950.500 C 3260.642 940.050, 3256.611 927.450, 3255.050 922.500 C 3251.260 910.475, 3248.178 900.777, 3235.192 860 C 3229.148 841.025, 3218.073 806.150, 3210.579 782.500 C 3203.085 758.850, 3196.542 738.375, 3196.038 737 C 3195.534 735.625, 3192.422 725.950, 3189.122 715.500 C 3180.117 686.982, 3159.027 620.801, 3148.651 588.500 C 3145.648 579.150, 3142.062 567.900, 3140.683 563.500 C 3137.446 553.173, 3125.965 517.069, 3120.809 501 C 3111.340 471.495, 3110.087 468.446, 3105.087 462.751 C 3101.773 458.977, 3094.706 455.151, 3089.483 454.304 C 3086.006 453.739, 3085.936 453.793, 3086.461 456.613 M 3526 762.500 L 3526 1071 3437.750 1071.116 C 3389.213 1071.180, 3350.287 1071.438, 3351.250 1071.689 C 3352.277 1071.958, 3353 1073.097, 3353 1074.448 C 3353 1078.741, 3356.072 1085.486, 3359.738 1089.242 C 3367.145 1096.831, 3362.958 1096.500, 3451.500 1096.500 C 3514.723 1096.500, 3531.399 1096.232, 3535 1095.157 C 3537.992 1094.264, 3541.032 1092.232, 3544.074 1089.093 C 3547.868 1085.177, 3548.891 1083.275, 3550.074 1077.936 C 3551.291 1072.443, 3551.500 1027.987, 3551.500 774.500 C 3551.500 451.191, 3551.864 471.254, 3545.845 462.945 C 3542.513 458.345, 3534.490 454.026, 3529.250 454.010 L 3526 454 3526 762.500 M 4140.750 454.571 C 4140.337 454.990, 4140 593.858, 4140 763.167 L 4140 1071 4052.250 1071.116 C 4003.988 1071.180, 3965.232 1071.427, 3966.128 1071.666 C 3967.217 1071.956, 3967.965 1073.679, 3968.388 1076.871 C 3969.385 1084.384, 3973.936 1090.611, 3980.768 1093.814 L 3986.500 1096.500 4064 1096.807 C 4133.454 1097.083, 4142.141 1096.943, 4147.676 1095.466 C 4155.126 1093.478, 4160.993 1088.810, 4163.632 1082.773 C 4165.440 1078.637, 4165.508 1068.917, 4165.760 778.529 C 4165.924 588.493, 4165.665 476.640, 4165.053 473.327 C 4163.770 466.387, 4160.022 460.683, 4154.691 457.559 C 4150.237 454.949, 4142.095 453.204, 4140.750 454.571 M 4410 518.370 L 4410 583 4296.750 583.150 C 4234.462 583.232, 4184.683 583.482, 4186.128 583.705 C 4188.429 584.059, 4188.836 584.704, 4189.389 588.876 C 4190.312 595.832, 4194.587 601.915, 4201.073 605.500 L 4206.500 608.500 4312 608.500 L 4417.500 608.500 4422.238 606.145 C 4427.896 603.334, 4432.419 598.453, 4434.165 593.277 C 4435.979 587.898, 4436.639 481.020, 4434.909 472.695 C 4432.736 462.233, 4425.207 455.454, 4414.409 454.237 L 4410 453.740 4410 518.370 M 4702.661 456.134 C 4702.312 457.435, 4702.021 596.313, 4702.014 764.750 L 4702 1071 4614.992 1071 C 4532.450 1071, 4528.029 1071.090, 4528.883 1072.750 C 4529.378 1073.713, 4530.540 1077.120, 4531.465 1080.323 C 4533.409 1087.049, 4538.553 1092.774, 4544.674 1095.024 C 4547.811 1096.178, 4562.532 1096.489, 4626.455 1096.751 C 4702.367 1097.062, 4704.584 1097.017, 4711.080 1095.044 C 4716.165 1093.500, 4718.584 1092.096, 4721.255 1089.140 C 4728.012 1081.660, 4727.500 1107.450, 4727.500 774.500 L 4727.500 471.500 4724.500 466.031 C 4720.975 459.604, 4714.912 455.356, 4707.897 454.397 C 4703.655 453.818, 4703.244 453.954, 4702.661 456.134 M 2880.192 457.860 C 2879.324 458.411, 2879.109 459.666, 2879.554 461.595 C 2879.922 463.193, 2895.059 516.025, 2913.191 579 L 2946.159 693.500 2944.185 700.500 C 2923.394 774.211, 2842 1067.896, 2842 1069.205 C 2842 1070.933, 2834.273 1070.995, 2648.409 1070.753 L 2454.817 1070.500 2392.659 973.912 C 2358.471 920.788, 2329.709 876.238, 2328.743 874.912 C 2327.038 872.573, 2327.032 872.621, 2328.533 876.500 C 2330.322 881.123, 2337.754 893.677, 2348.197 909.719 C 2352.214 915.889, 2357.593 924.214, 2360.151 928.219 C 2364.339 934.774, 2377.984 956.049, 2401.268 992.325 C 2405.796 999.380, 2414 1012.097, 2419.500 1020.587 C 2425 1029.077, 2434.878 1044.456, 2441.452 1054.762 C 2460.969 1085.361, 2465.960 1090.964, 2477 1094.659 C 2482.179 1096.393, 2487.749 1096.500, 2572.500 1096.500 C 2622 1096.500, 2666.550 1096.381, 2671.500 1096.236 C 2676.450 1096.091, 2716.950 1096.237, 2761.500 1096.562 C 2846.016 1097.177, 2849.010 1097.065, 2857 1092.969 C 2860.910 1090.965, 2865.703 1086.038, 2868.155 1081.500 C 2870.060 1077.975, 2875.364 1061.001, 2880.498 1042 C 2882.504 1034.575, 2884.755 1026.475, 2885.500 1024 C 2886.245 1021.525, 2888.487 1013.425, 2890.482 1006 C 2892.477 998.575, 2894.732 990.475, 2895.493 988 C 2896.254 985.525, 2898.019 979.225, 2899.415 974 C 2900.811 968.775, 2903.278 959.775, 2904.897 954 C 2907.828 943.548, 2914.569 919.382, 2918.009 907 C 2919.003 903.425, 2922.131 892.175, 2924.960 882 C 2927.790 871.825, 2931.397 858.775, 2932.975 853 C 2938.350 833.326, 2946.875 802.538, 2951.941 784.500 C 2954.722 774.600, 2958.406 761.325, 2960.128 755 C 2961.851 748.675, 2963.902 741.498, 2964.686 739.052 C 2966.587 733.119, 2968.658 722.874, 2969.448 715.500 C 2970.162 708.838, 2968.445 697.288, 2965.113 686.328 C 2962.522 677.804, 2958.386 663.541, 2956.028 655 C 2953.738 646.703, 2944.653 615.095, 2941.369 604 C 2936.220 586.607, 2934.915 582.088, 2929.957 564.500 C 2927.166 554.600, 2924.467 545.150, 2923.959 543.500 C 2923.451 541.850, 2921.689 535.775, 2920.043 530 C 2903.305 471.282, 2902.093 467.923, 2895.592 462.215 C 2890.835 458.038, 2883.280 455.902, 2880.192 457.860 M 3805.500 477.117 C 3818.219 486.825, 3831.571 503.078, 3838.944 517.829 C 3853.101 546.147, 3858.756 589.056, 3857.719 660.279 C 3856.519 742.681, 3845.790 780.484, 3814.907 811.121 C 3807.266 818.701, 3791.817 829.746, 3782.750 834.112 C 3780.137 835.369, 3778 836.923, 3778 837.564 C 3778 838.205, 3780.657 845.202, 3783.904 853.114 C 3787.152 861.027, 3808.121 912.725, 3830.503 968 C 3852.886 1023.275, 3871.427 1069.063, 3871.706 1069.750 C 3872.110 1070.745, 3852.622 1071.016, 3776.357 1071.079 C 3723.636 1071.122, 3681.070 1071.387, 3681.766 1071.668 C 3682.463 1071.948, 3684.402 1074.950, 3686.077 1078.339 C 3689.919 1086.113, 3694.867 1091.235, 3701.393 1094.188 L 3706.500 1096.500 3787.500 1096.807 C 3845.360 1097.026, 3870.214 1096.787, 3874.500 1095.969 C 3886.025 1093.769, 3891.400 1088.031, 3891.216 1078.123 C 3891.094 1071.531, 3888.398 1062.923, 3880.217 1043 C 3876.942 1035.025, 3870.557 1019.275, 3866.028 1008 C 3861.499 996.725, 3857.188 986.150, 3856.446 984.500 C 3855.705 982.850, 3854.236 979.250, 3853.181 976.500 C 3852.126 973.750, 3847.780 962.950, 3843.523 952.500 C 3839.267 942.050, 3833.086 926.750, 3829.789 918.500 C 3826.491 910.250, 3823.192 902.150, 3822.458 900.500 C 3821.723 898.850, 3818.569 891.017, 3815.449 883.093 C 3807.373 862.587, 3807.852 859.993, 3821.782 848.737 C 3860.014 817.843, 3874.988 787.148, 3881.655 726 C 3884.229 702.395, 3884.233 632.235, 3881.663 607 C 3877.438 565.528, 3870.231 541.465, 3855.201 518.651 C 3848.961 509.180, 3835.873 495.661, 3826.374 488.875 C 3818.627 483.341, 3799.648 472.651, 3805.500 477.117 M 4978 485.724 C 5010.507 510.821, 5027.094 549.483, 5033.465 615 C 5038.457 666.349, 5039.331 822.237, 5034.964 882.584 C 5030.113 949.622, 5017.526 988.547, 4992.013 1015.411 C 4970.617 1037.940, 4943.382 1050.770, 4897.500 1059.935 C 4879.864 1063.458, 4865.978 1065.334, 4842 1067.432 C 4820.926 1069.276, 4782.868 1071, 4763.229 1071 C 4749.933 1071, 4748.993 1071.123, 4749.833 1072.750 C 4750.330 1073.713, 4751.026 1076.108, 4751.381 1078.073 C 4752.570 1084.673, 4757.423 1090.840, 4763.768 1093.814 L 4769.500 1096.500 4797.500 1096.395 C 4857.254 1096.170, 4912.846 1089.380, 4948.500 1077.952 C 4992.620 1063.811, 5019.754 1041.937, 5037.480 1006.222 C 5048.370 984.281, 5053.948 962.816, 5058.460 925.500 C 5061.645 899.150, 5062.219 881.651, 5062.704 796.084 C 5063.474 660.344, 5061.329 622.776, 5050.340 579.566 C 5042.510 548.777, 5031.239 527.966, 5012.105 508.972 C 5001.401 498.345, 4995.337 493.781, 4982.663 486.815 C 4974.483 482.318, 4973.200 482.018, 4978 485.724 M 1459.444 572.417 C 1457.329 573.964, 1449.082 559.406, 1547.636 728.084 L 1614 841.668 1614 956.334 L 1614 1071 1530.750 1071.015 C 1484.963 1071.024, 1447.997 1071.361, 1448.605 1071.765 C 1449.212 1072.169, 1450.252 1074.788, 1450.915 1077.584 C 1453.287 1087.592, 1458.567 1092.906, 1468.726 1095.508 C 1474.054 1096.873, 1484.195 1097.037, 1547.669 1096.787 C 1630.091 1096.462, 1625.371 1096.929, 1632.926 1088.347 C 1639.750 1080.594, 1639.500 1085.095, 1639.500 970 L 1639.500 866.500 1637.242 858.709 C 1634.585 849.541, 1630.542 841.264, 1620.413 824.255 C 1616.336 817.409, 1613 811.634, 1613 811.421 C 1613 811.209, 1611.125 807.990, 1608.834 804.268 C 1606.543 800.545, 1602.350 793.450, 1599.517 788.500 C 1595.082 780.750, 1581.559 757.562, 1548.199 700.500 C 1544.019 693.350, 1537.583 682.325, 1533.896 676 C 1530.210 669.675, 1526.106 662.700, 1524.777 660.500 C 1523.448 658.300, 1517.032 647.275, 1510.519 636 C 1482.136 586.868, 1477.490 579.699, 1470.793 574.718 C 1466.654 571.639, 1461.842 570.664, 1459.444 572.417 M 3571.128 583.628 C 3573.406 584.045, 3573.841 584.737, 3574.384 588.805 C 3575.598 597.890, 3581.984 604.848, 3591.500 607.457 C 3594.714 608.338, 3605.196 609.050, 3620.852 609.450 C 3650.916 610.219, 3663.191 612.328, 3669.361 617.788 C 3671.246 619.456, 3671.279 619.394, 3670.661 615.405 C 3668.692 602.705, 3663.105 593.666, 3654.675 589.542 C 3645.305 584.958, 3636.592 583.984, 3601 583.547 C 3583.125 583.327, 3569.683 583.363, 3571.128 583.628 M 4747 583.737 C 4749.854 584.267, 4750.963 585.608, 4750.985 588.554 C 4751.014 592.441, 4756.186 601.122, 4760.208 604.036 C 4765.420 607.812, 4770.765 608.743, 4794 609.926 C 4821.288 611.314, 4831.957 613.838, 4841.080 621.063 C 4843.236 622.771, 4845 623.987, 4845 623.766 C 4845 623.544, 4844.275 620.919, 4843.388 617.932 C 4838.249 600.608, 4827.040 589.986, 4810.194 586.473 C 4802.003 584.765, 4773.177 582.982, 4756.500 583.151 C 4749.900 583.218, 4745.625 583.481, 4747 583.737 M 4367.618 697.899 C 4367.290 699.880, 4367.017 729.063, 4367.011 762.750 L 4367 824 4277.637 824 L 4188.273 824 4189.218 829.200 C 4190.475 836.113, 4193.144 841.121, 4197.184 844.142 C 4204.646 849.724, 4200.721 849.500, 4291 849.500 L 4374.500 849.500 4379.238 847.145 C 4385.145 844.210, 4389.526 839.312, 4391.208 833.763 C 4392.200 830.489, 4392.500 816.041, 4392.500 771.500 L 4392.500 713.500 4390.212 708.537 C 4388.953 705.807, 4387.153 702.721, 4386.212 701.680 C 4383.794 699.006, 4377.697 696.070, 4372.576 695.113 L 4368.213 694.298 4367.618 697.899 M 1015 777.500 L 1015 842 925.750 842.175 C 876.663 842.271, 838.377 842.520, 840.671 842.728 C 844.709 843.095, 844.865 843.242, 845.542 847.304 C 847.175 857.093, 853.013 863.923, 862.500 867.143 C 868.347 869.127, 1014.020 869.138, 1021.732 867.155 C 1032.615 864.356, 1038.187 857.681, 1039.978 845.294 C 1041.334 835.915, 1041.286 746.199, 1039.919 736.374 C 1038.758 728.029, 1036.593 722.803, 1032.847 719.312 C 1029.571 716.258, 1022.122 713.048, 1018.250 713.022 L 1015 713 1015 777.500 M 3574 860.874 C 3574 864.955, 3576.679 872.027, 3579.284 874.819 C 3583.553 879.397, 3586.948 881.061, 3597.183 883.593 C 3602.857 884.996, 3608.210 886.787, 3609.079 887.572 C 3609.947 888.358, 3610.902 889, 3611.201 889 C 3611.499 889, 3609.214 882.032, 3606.122 873.515 L 3600.500 858.029 3587.250 858.015 L 3574 858 3574 860.874 M 4410.618 941.715 C 4410.278 942.055, 4410 971.283, 4410 1006.667 L 4410 1071 4297.750 1071.030 C 4225.997 1071.050, 4186.090 1071.405, 4187.134 1072.015 C 4188.042 1072.545, 4189.061 1074.920, 4189.426 1077.355 C 4190.424 1084.007, 4194.751 1090.005, 4201.073 1093.500 L 4206.500 1096.500 4309 1096.803 C 4423.445 1097.142, 4419.738 1097.340, 4427.809 1090.432 C 4435.681 1083.693, 4435.463 1085.544, 4435.790 1022.691 C 4435.975 987.033, 4435.703 964.826, 4435.038 961.191 C 4433.597 953.315, 4429.764 948.111, 4423 944.844 C 4417.256 942.069, 4411.674 940.659, 4410.618 941.715 M 2926.162 966.860 C 2926.633 975.196, 2929.426 979.504, 2936.698 983.116 L 2941.500 985.500 3003 986 C 3058.092 986.448, 3064.891 986.677, 3068.257 988.202 L 3072.014 989.904 3071.399 987.202 C 3070.895 984.987, 3066.395 968.681, 3064.375 961.750 C 3063.896 960.105, 3059.716 960, 2994.820 960 L 2925.774 960 2926.162 966.860" stroke="none" fill="#6e6e6e" fill-rule="evenodd"/><path d="M 614 757 L 614 1071 705.500 1071 L 797 1071 797 757 L 797 443 705.500 443 L 614 443 614 757 M 834.547 459.250 C 834.181 468.188, 834.020 499.708, 834.190 529.295 L 834.500 583.089 940.938 583.023 C 999.480 582.986, 1047.461 582.854, 1047.563 582.728 C 1047.665 582.603, 1047.969 551.112, 1048.237 512.750 L 1048.725 443 941.969 443 L 835.213 443 834.547 459.250 M 1139 757 L 1139 1071 1230.500 1071 L 1322 1071 1322 757 L 1322 443 1230.500 443 L 1139 443 1139 757 M 1440 456.132 L 1440 469.274 1455.994 496.387 C 1464.791 511.299, 1544.141 646.575, 1632.327 797 L 1792.666 1070.500 1883.833 1070.755 L 1975 1071.011 1975 1057.818 L 1975 1044.626 1938.650 982.563 C 1918.657 948.428, 1843.125 819.475, 1770.801 696 C 1698.476 572.525, 1635.687 465.200, 1631.269 457.500 L 1623.237 443.500 1531.618 443.245 L 1440 442.990 1440 456.132 M 1801 557.673 L 1801 672.347 1808.131 684.423 C 1818.079 701.273, 1882.680 811.719, 1932.468 897 C 1955.426 936.325, 1974.388 968.687, 1974.605 968.917 C 1974.822 969.146, 1975 850.908, 1975 706.167 L 1975 443 1888 443 L 1801 443 1801 557.673 M 2093 757 L 2093 1071 2184.500 1071 L 2276 1071 2276 757 L 2276 443 2184.500 443 L 2093 443 2093 757 M 2386.154 548.940 L 2314 654.881 2314 753.235 L 2314 851.590 2384.406 961.045 L 2454.811 1070.500 2648.406 1070.753 C 2834.272 1070.995, 2842 1070.933, 2842 1069.205 C 2842 1067.896, 2923.394 774.211, 2944.185 700.500 L 2946.159 693.500 2913.213 579 C 2895.092 516.025, 2878.954 459.775, 2877.349 454 L 2874.433 443.500 2866.415 443.213 L 2858.397 442.926 2759.057 755.213 C 2704.419 926.971, 2659.442 1067.802, 2659.108 1068.170 C 2658.774 1068.539, 2621.388 1012.514, 2576.030 943.670 C 2530.671 874.827, 2481.707 800.590, 2467.221 778.701 L 2440.883 738.902 2444.268 734.201 C 2459.920 712.462, 2629 481.723, 2632.268 477.643 C 2637.678 470.886, 2656.394 445.224, 2656.833 443.959 C 2657.045 443.351, 2620.783 443, 2557.737 443 L 2458.307 443 2386.154 548.940 M 2915.459 445.744 C 2915.962 447.786, 3018.649 807.132, 3021.621 817.250 C 3022.104 818.894, 3019.934 819, 2985.811 819 L 2949.487 819 2930.614 888.250 C 2920.234 926.337, 2911.527 958.063, 2911.264 958.750 C 2910.884 959.743, 2926.505 960, 2987.322 960 L 3063.858 960 3065.358 965.250 C 3066.183 968.138, 3067.772 973.875, 3068.890 978 C 3070.007 982.125, 3076.410 1004.737, 3083.119 1028.250 L 3095.316 1071 3188.553 1071 L 3281.791 1071 3278.484 1060.750 C 3263.243 1013.509, 3086.734 458.266, 3086.436 456.627 C 3086.224 455.457, 3085.208 452.025, 3084.180 449 L 3082.309 443.500 2998.545 443.244 L 2914.780 442.989 2915.459 445.744 M 3343 757 L 3343 1071 3434.500 1071 L 3526 1071 3526 757 L 3526 443 3434.500 443 L 3343 443 3343 757 M 3563.243 512.904 L 3563.500 583.018 3598.500 583.437 C 3636.748 583.895, 3644.956 584.787, 3654.675 589.542 C 3663.904 594.057, 3668.785 602.756, 3671.206 619 C 3672.790 629.625, 3672.716 671.589, 3671.096 681.494 C 3666.761 708.011, 3656.537 714.854, 3618.064 716.987 C 3608.404 717.523, 3592.063 717.970, 3581.750 717.981 L 3563 718 3563 788 L 3563 858 3581.750 858.014 L 3600.500 858.028 3606.370 874.264 C 3610.968 886.981, 3676.559 1061.825, 3679.517 1069.250 C 3680.174 1070.900, 3685.718 1071, 3776.214 1071 C 3852.618 1071, 3872.110 1070.745, 3871.706 1069.750 C 3871.427 1069.063, 3852.886 1023.275, 3830.503 968 C 3808.121 912.725, 3787.152 861.027, 3783.904 853.114 C 3780.657 845.202, 3778 838.205, 3778 837.564 C 3778 836.923, 3780.137 835.369, 3782.750 834.112 C 3791.817 829.746, 3807.266 818.701, 3814.907 811.121 C 3831.036 795.120, 3841.779 776.106, 3847.996 752.554 C 3854.800 726.776, 3857.064 705.297, 3857.719 660.279 C 3859.097 565.657, 3849.030 520.704, 3819.609 490.106 C 3798.965 468.635, 3770.059 455.093, 3730.951 448.569 C 3705.352 444.298, 3696.231 443.828, 3628.743 443.303 L 3562.986 442.790 3563.243 512.904 M 3957 757 L 3957 1071 4048.500 1071 L 4140 1071 4140 766.154 C 4140 598.488, 4140.292 457.188, 4140.650 452.154 L 4141.299 443 4049.150 443 L 3957 443 3957 757 M 4178 513.250 L 4178 583.500 4293.695 583.222 C 4357.327 583.069, 4409.494 582.839, 4409.622 582.712 C 4409.749 582.584, 4409.999 551.097, 4410.177 512.740 L 4410.500 442.999 4294.250 443 L 4178 443 4178 513.250 M 4519 757 L 4519 1071 4610.500 1071 L 4702 1071 4702 767.656 C 4702 600.816, 4702.293 459.516, 4702.652 453.656 L 4703.304 443 4611.152 443 L 4519 443 4519 757 M 4740 513.207 L 4740 583.736 4751.250 583.248 C 4765.474 582.632, 4801.355 584.594, 4810.270 586.475 C 4823.339 589.233, 4833.929 597.034, 4839.491 608 C 4848.864 626.481, 4850.965 653.849, 4850.970 757.500 C 4850.973 817.924, 4849.860 861.717, 4847.945 876.500 C 4843.911 907.638, 4831.920 922.859, 4807.789 927.476 C 4797.514 929.442, 4774.765 930.978, 4755.750 930.990 L 4740 931 4740 1001 L 4740 1071 4758.764 1071 C 4809.908 1071, 4863.508 1066.725, 4897.500 1059.935 C 4943.382 1050.770, 4970.617 1037.940, 4992.013 1015.411 C 5017.526 988.547, 5030.113 949.622, 5034.964 882.584 C 5038.104 839.186, 5038.673 709.670, 5035.977 652 C 5032.019 567.348, 5018.653 523.722, 4987.654 494.277 C 4951.721 460.143, 4891.135 445.851, 4771.750 443.344 L 4740 442.677 4740 513.207 M 1440 807.800 L 1440 1071 1527 1071 L 1614 1071 1614 956.335 L 1614 841.670 1549.086 730.585 C 1513.383 669.488, 1474.666 603.080, 1463.048 583.012 C 1451.429 562.943, 1441.491 546.091, 1440.962 545.562 C 1440.346 544.946, 1440 639.304, 1440 807.800 M 4178 754 L 4178 824 4272.500 824 L 4367 824 4367.005 765.250 C 4367.007 732.938, 4367.301 701.438, 4367.657 695.250 L 4368.306 684 4273.153 684 L 4178 684 4178 754 M 834.510 705.250 C 834.191 707.038, 834.058 738.650, 834.215 775.500 C 834.440 828.347, 834.764 842.479, 835.750 842.400 C 836.438 842.345, 877.050 842.232, 926 842.150 L 1015 842 1015 772 L 1015 702 925.045 702 L 835.091 702 834.510 705.250 M 4178 1001 L 4178 1071 4294 1071 L 4410 1071 4410.006 1009.250 C 4410.009 975.288, 4410.301 943.788, 4410.654 939.250 L 4411.296 931 4294.648 931 L 4178 931 4178 1001" stroke="none" fill="#fbfbfb" fill-rule="evenodd"/></svg>